<svg width="140" height="62" viewBox="0 0 140 62" fill="none" xmlns="http://www.w3.org/2000/svg">
<g clip-path="url(#clip0_2_157)">
<path d="M46.0397 17.6023C38.1408 23.3143 29.6776 28.288 24.1859 36.7977C22.4933 39.44 19.3713 44.88 20.1612 45.4628C20.8759 46.0457 22.5685 45.2297 22.907 45.2297C22.907 45.6571 22.6813 46.0457 22.418 46.3954C21.4401 47.4834 18.6566 49.3874 17.4906 47.5611C17.0768 46.9006 17.0768 46.0457 17.1521 45.2686C17.4154 42.8206 18.4686 40.528 19.6346 38.352C22.8694 32.368 27.1574 27.3943 31.3326 22.1097C33.8904 18.8457 37.0123 15.6595 38.7802 11.8515C39.6077 10.1029 40.0967 8.23776 40.2848 6.33376C40.36 5.63433 40.3976 4.89605 40.1719 4.19662C39.7206 2.72005 38.3288 2.33148 37.0123 2.25377C34.3041 1.98177 31.7464 2.72005 29.3014 3.96348C24.1107 6.68347 18.9575 9.86975 14.2934 13.6C11.8861 15.5429 9.59161 17.6412 7.48521 19.9337C5.6045 21.9543 3.53572 24.2857 3.12197 27.1223C3.12197 27.2389 3.08435 27.3554 3.15958 27.4332C3.23481 27.5497 3.34765 27.5886 3.46049 27.6274C4.28801 27.8606 5.15313 28.016 6.01826 28.016C6.28156 28.016 8.53841 27.5109 8.57602 27.5886C8.65125 27.7052 8.72648 27.8217 8.76409 27.9383C8.50079 28.2492 8.31272 28.6766 8.01181 28.8709C6.50724 29.9589 4.8146 30.5029 2.93389 30.464C0.752272 30.3863 -0.714681 27.9383 0.300902 25.6457C1.12841 23.8194 2.33207 22.0709 3.64856 20.5555C9.29069 13.9497 16.1741 9.0149 23.5841 4.74062C26.9694 2.79777 30.3546 0.738342 34.2289 0.194343C36.2224 -0.116514 38.3665 0.116628 40.3976 0.505199C42.1655 0.854913 42.9554 2.37034 43.0682 4.27434C43.3315 9.13147 41.6013 13.2892 38.8554 17.0583C37.238 19.2732 35.6206 21.488 34.1161 23.8583C35.9591 22.5372 37.8399 21.216 39.683 19.8949C43.482 17.1749 47.2434 14.416 51.0801 11.7738C51.6067 11.424 52.6975 11.2686 53.1864 11.6183C53.9387 12.1235 53.525 12.9783 53.036 13.7166C49.5379 18.9623 46.3031 24.4023 43.9334 30.3086C43.7829 30.6583 43.6701 31.008 43.5572 31.3577C43.5196 31.4354 43.5948 31.5131 43.5572 31.4743C45.7765 29.0652 47.9957 26.6172 50.3278 24.208C54.9543 19.3897 60.1075 15.3875 66.1257 12.6286C66.878 12.2789 67.5551 11.6572 68.1945 11.0743C69.6238 9.79204 70.9403 8.39318 72.9339 8.08233C73.4229 8.00461 73.9495 8.31547 74.4761 8.43204C74.2128 8.82061 74.0247 9.2869 73.7238 9.59776C65.1101 18.8846 59.0543 26.3063 56.5341 39.0903C56.1956 40.7611 56.1204 41.4217 56.3837 43.0926C56.6846 44.9188 57.3616 45.7348 59.2047 45.8125C59.5432 45.8125 62.1762 45.424 62.0258 46.0845C61.9129 46.7063 60.2579 47.4834 59.7689 47.7165C58.791 48.1828 57.7001 48.4937 56.6093 48.5325C54.5029 48.6491 53.0736 47.3668 52.5094 45.3074C51.5314 41.6548 51.9452 39.2068 52.9231 35.632C55.4057 26.5394 57.9258 23.7806 63.6808 15.7372C62.2139 16.6309 60.6717 17.3692 59.3552 18.4572C52.4718 23.9749 46.1902 30.1532 41.7141 38.0023C40.5857 39.984 40.2472 42.8983 41.3756 44.9188C41.6013 45.3463 41.9398 45.8514 41.827 46.3177C41.7517 46.7451 41.3756 47.0171 41.0371 47.2503C39.4573 48.2605 36.8995 49.1543 36.2225 46.7063C35.3197 43.4811 35.7711 39.2068 36.8243 36.1371C38.8931 30.0754 41.6765 24.3634 45.2122 19.04C45.5131 18.496 45.7765 18.0297 46.0397 17.6023Z" fill="black"/>
<path d="M66.2386 38.1188C66.3138 38.1188 66.389 38.1188 66.4266 38.0799C67.3294 37.7691 68.3826 36.4091 69.0973 35.7485C69.7367 35.1268 70.4137 34.5051 71.0532 33.8834C75.6797 29.4148 78.3503 23.0811 82.2246 17.952C84.7071 14.6491 88.0548 11.8126 91.1392 9.13141C91.6658 8.66513 92.2676 8.31541 92.907 8.08227C93.2832 7.92684 94.0731 7.9657 94.1859 8.19884C94.4116 8.58741 94.4492 9.3257 94.2235 9.67541C93.396 10.9188 92.418 12.0845 91.4777 13.2114C85.6475 20.128 79.3659 27.2 76.3944 36.0205C76.1687 36.6422 75.7926 37.5748 76.8082 37.3028C77.2219 37.1862 77.6357 37.0308 78.0494 36.8365C78.7641 36.4479 79.4788 36.0205 80.1558 35.5931C83.4659 33.4948 85.6475 30.1919 87.6787 26.8502C89.9355 23.1588 92.0795 19.312 94.9006 16.048C96.518 14.1828 98.3235 12.512 100.091 10.8411C100.543 10.4137 101.182 10.1028 101.784 9.90855C102.16 9.79198 102.8 9.8697 102.988 10.1028C103.213 10.4526 103.251 11.1131 103.063 11.4628C102.499 12.512 101.822 13.5611 101.069 14.4937C98.1354 18.1463 95.2767 21.8765 92.6813 25.8011C91.3648 27.7828 90.1236 29.8034 88.9952 31.9017C88.4309 32.9508 87.8667 33.9999 87.3777 35.0879C87.0392 35.7874 86.1365 37.1085 86.2493 37.9245C86.3622 38.5851 87.0392 38.5074 87.4906 38.2742C89.1456 37.4582 90.8383 36.6422 92.1547 35.3211C93.8474 33.6114 94.6373 31.3188 95.9914 29.3759C97.5336 27.1611 99.3767 25.1794 101.521 23.5474C102.01 23.1588 102.536 22.8091 103.138 22.6925C103.514 22.6148 104.191 22.8091 104.417 23.12C104.643 23.4308 104.605 24.1302 104.379 24.4411C102.574 27.0445 100.543 29.4925 98.8125 32.1737C97.8721 33.6502 96.1042 36.0594 96.2547 37.8856C96.2547 38.0022 96.2923 38.0799 96.3299 38.1576C96.4428 38.3519 96.7061 38.3519 96.9318 38.3131C98.5116 38.0799 99.7904 36.7588 100.994 35.7874C102.423 34.6217 103.815 33.3782 105.094 32.0959C106.9 30.2697 108.442 28.2102 110.172 26.2674C110.699 25.6845 111.3 25.1017 112.015 24.752C112.391 24.5577 113.783 24.0525 114.009 24.7131C114.046 24.7908 114.046 24.9074 114.046 24.9851C113.971 27.0834 112.542 28.5988 111.488 30.2697C110.473 31.9017 109.457 33.5337 108.404 35.1268C105.997 38.7794 103.401 42.3154 101.032 45.9679C100.129 47.3279 99.6024 48.9599 98.7372 50.7862C101.145 48.8822 102.536 46.2011 105.433 45.5016C105.733 46.7451 104.981 47.4056 104.379 48.1051C102.687 50.0091 100.956 51.8742 99.2638 53.7782C97.5712 55.721 96.2171 57.7416 94.863 59.9176C94.2611 60.889 93.6593 62.2879 92.4933 61.7439C91.9667 61.5107 91.7034 59.6068 91.9667 58.713C93.1327 54.8662 94.2611 50.9416 95.9538 47.3279C97.7969 43.3645 100.279 39.7508 102.311 36.2148C101.558 36.7588 100.505 37.6525 99.3767 38.3131C98.2106 39.0125 96.9694 39.7508 95.6905 40.1005C93.9978 40.6056 93.2079 39.9451 92.6813 38.1576C92.6437 37.9634 92.5309 37.7691 92.4933 37.6525C92.5309 37.7302 89.1832 39.3622 88.8823 39.5176C87.7163 40.0616 86.3998 40.5668 85.1209 40.6445C82.5631 40.7999 82.1494 38.2742 82.1118 36.8754C82.4127 37.5359 75.8678 40.1782 75.0779 40.4502C73.4229 40.9942 72.3321 40.2559 71.7302 38.6628C71.3917 37.7691 70.978 36.0982 71.8807 35.3988C71.7679 35.4765 71.5422 35.6708 71.3165 35.8651C69.1349 37.4194 66.9532 39.2845 64.5836 40.5668C63.3047 41.2662 61.9882 41.4994 61.5744 39.7896C61.1607 38.0799 61.4616 36.5257 62.101 35.0102C63.756 31.1245 66.0505 27.7051 69.0973 24.9074C69.6991 24.3634 70.4514 23.936 71.2036 23.664C71.9559 23.3531 72.7834 23.0422 73.3853 24.0525C73.9495 24.9851 73.3853 25.6068 72.8587 26.3062C71.3917 28.1714 69.8871 29.9977 68.6083 32.0182C68.0441 32.9119 67.5551 33.8834 67.1413 34.8548C66.7276 35.7485 66.1257 36.7199 66.0129 37.7302C66.0129 37.8079 66.0129 37.8856 66.0129 37.9634C65.9377 38.0411 66.0881 38.1188 66.2386 38.1188Z" fill="black"/>
<path d="M120.553 33.7669C121.193 36.6812 120.892 37.6527 118.635 39.2458C115.664 41.3829 112.316 42.3544 108.705 42.0435C107.765 41.9658 107.276 40.3338 107.99 39.2846C108.404 38.6629 108.968 38.1189 109.57 37.6915C111.451 36.3315 113.332 35.0104 115.25 33.7281C115.776 33.3784 115.965 33.0675 115.814 32.4069C115.325 30.6195 115.776 29.1041 116.905 27.5887C119.35 24.2858 122.547 22.5761 126.496 22.3041C127.098 22.2653 128.076 22.615 128.264 23.0424C128.49 23.5864 128.264 24.6355 127.888 25.1018C127.362 25.7235 126.76 26.3064 126.12 26.8504C125.819 27.1224 125.556 27.3944 125.218 27.5887C124.954 27.7441 124.465 27.7441 124.428 27.3944C124.428 27.0835 125.255 26.5007 125.443 26.2287C125.895 25.607 126.346 24.9852 126.797 24.3247C124.277 24.6744 119.764 29.0652 119.764 31.1247C122.058 30.0367 124.315 29.1041 126.496 27.9384C130.145 25.9955 133.756 23.9361 137.367 21.9544C137.781 21.7213 138.27 21.4493 138.721 21.4881C139.21 21.527 139.887 21.8378 140.038 22.2264C140.188 22.615 139.887 23.431 139.549 23.6641C137.593 25.0241 135.599 26.3841 133.493 27.4721C129.694 29.4538 125.782 31.2024 121.908 33.0675C121.419 33.3395 121.042 33.5338 120.553 33.7669ZM111.902 39.0515C111.902 39.0904 111.902 39.1292 111.902 39.1681C112.09 39.7121 113.858 38.9738 114.197 38.8572C114.987 38.5852 117.243 37.7692 117.281 36.6812C117.281 36.4869 117.206 36.2538 117.131 36.0595C117.055 35.9041 116.98 35.7487 116.83 35.6709C116.378 35.3989 114.385 36.9532 113.933 37.2252C113.407 37.6138 112.053 38.2744 111.902 39.0515Z" fill="black"/>
<path d="M73.2348 20.439C73.0843 19.5064 73.5733 18.535 74.2128 17.719C74.7394 17.0196 75.4164 16.3201 76.2439 16.0093C76.8458 15.7373 78.0494 15.6207 78.2751 16.5144C78.7641 18.4184 75.7926 21.1384 74.2128 21.5658C73.6109 21.6824 73.3476 20.983 73.2348 20.439Z" fill="black"/>
</g>
<defs>
<clipPath id="clip0_2_157">
<rect width="140" height="61.8605" fill="white"/>
</clipPath>
</defs>
</svg>
